<?xml version="1.0" encoding="iso-8859-1"?>
<!-- Generator: Adobe Illustrator 19.0.0, SVG Export Plug-In . SVG Version: 6.00 Build 0)  -->
<svg version="1.1" id="Capa_1" xmlns="http://www.w3.org/2000/svg" xmlns:xlink="http://www.w3.org/1999/xlink" x="0px" y="0px"
	 viewBox="0 0 480 480" style="enable-background:new 0 0 480 480;" xml:space="preserve">
<g>
	<path style="fill:#FFA244;" d="M200,440c0,1.848,0.224,3.632,0.544,5.384c0.112,0.608,0.2,1.224,0.344,1.816
		c0.312,1.288,0.712,2.552,1.176,3.776c0.408,1.072,0.856,2.12,1.36,3.144c5.224,10.56,16,17.88,28.576,17.88h112
		c17.672,0,32-14.328,32-32v-8H200V440z"/>
	<path style="fill:#FFA244;" d="M200,200v8h176v-8c0-17.672-14.328-32-32-32h-16.92H232C214.328,168,200,182.328,200,200z"/>
</g>
<path style="fill:#17B2B0;" d="M432,256h22.688c0.848-7.888,1.312-15.888,1.312-24c0-4.624-0.184-9.208-0.464-13.76
	c-0.08-1.288-0.192-2.568-0.296-3.848c-0.272-3.456-0.616-6.896-1.04-10.312c-0.144-1.176-0.28-2.352-0.448-3.528
	c-1.296-9.168-3.12-18.168-5.496-26.936c-0.144-0.544-0.312-1.08-0.456-1.616c-1.128-4.064-2.368-8.08-3.712-12.04
	c-0.152-0.448-0.304-0.904-0.456-1.352c-4.68-13.504-10.616-26.408-17.672-38.6l0,0C387.224,53.064,314.896,8,232,8
	c0,0,46.648,45.064,77.456,112c6.904,15,13.024,31.064,17.632,48H344c17.672,0,32,14.328,32,32v8v48H272v128h104h56
	c0-22.112,17.888-40,40-40v-48C449.888,296,432,278.112,432,256z M352,344c-13.256,0-24-10.744-24-24s10.744-24,24-24
	s24,10.744,24,24S365.256,344,352,344z"/>
<path style="fill:#68E8BB;" d="M200.888,447.2c-0.144-0.592-0.232-1.208-0.344-1.816c-0.32-1.752-0.544-3.536-0.544-5.384v-8v-13.08
	V344V232v-24v-8c0-17.672,14.328-32,32-32h95.08c-4.608-16.936-10.728-33-17.632-48C278.648,53.064,232,8,232,8
	C149.104,8,76.776,53.064,38.04,120c0,0,0,0,0,0.008c-7.056,12.192-12.992,25.096-17.672,38.6c-0.152,0.448-0.304,0.904-0.456,1.352
	c-1.352,3.96-2.584,7.976-3.72,12.04c-0.152,0.544-0.312,1.08-0.456,1.616c-2.368,8.776-4.2,17.768-5.496,26.936
	c-0.168,1.168-0.304,2.352-0.448,3.528c-0.424,3.416-0.768,6.856-1.04,10.312c-0.096,1.28-0.216,2.56-0.296,3.848
	C8.184,222.792,8,227.376,8,232c0,4.568,0.184,9.088,0.456,13.592c0.072,1.168,0.16,2.328,0.248,3.488
	c0.296,3.936,0.68,7.848,1.184,11.72c0.072,0.568,0.12,1.136,0.2,1.704c0.616,4.52,1.384,8.984,2.264,13.408
	c0.144,0.712,0.304,1.416,0.448,2.128c0.848,4.048,1.792,8.056,2.856,12.016c0.12,0.448,0.232,0.896,0.352,1.344
	c2.504,9.128,5.592,18.016,9.184,26.64c0.072,0.176,0.144,0.352,0.216,0.528c1.864,4.44,3.872,8.8,6.008,13.088
	c0.904,1.816,1.92,3.56,2.872,5.344c1.24,2.336,2.432,4.712,3.76,7h0.024c34.208,59.08,94.6,101.104,165.344,110.12l0,0
	c-0.504-1.016-0.96-2.072-1.36-3.144C201.592,449.752,201.2,448.496,200.888,447.2z"/>
<g>
	<polygon style="fill:#DCDCDC;" points="272,256 376,256 376,208 200,208 200,232 200,344 200,418.92 200,432 376,432 376,384 
		272,384 	"/>
	<path style="fill:#DCDCDC;" d="M432,256c0,22.112,17.888,40,40,40v-40h-17.312H432z"/>
	<path style="fill:#DCDCDC;" d="M432,384h40v-40C449.888,344,432,361.888,432,384z"/>
	<circle style="fill:#DCDCDC;" cx="352" cy="320" r="24"/>
</g>
<g>
	<path style="fill:#143446;" d="M472,248h-8.64c0.376-5.416,0.64-10.784,0.64-16c0-4.704-0.184-9.368-0.464-14.008
		c-0.072-1.192-0.184-2.376-0.272-3.56c-0.28-3.688-0.64-7.36-1.088-11c-0.128-1.04-0.256-2.08-0.4-3.12
		c-1.32-9.608-3.208-19.024-5.664-28.216c-0.056-0.216-0.128-0.424-0.184-0.64c-1.168-4.328-2.48-8.6-3.896-12.824
		c-0.264-0.784-0.528-1.568-0.8-2.352c-1.4-4.04-2.896-8.04-4.504-11.976c-0.192-0.464-0.36-0.944-0.552-1.408
		c-1.776-4.256-3.68-8.448-5.704-12.576c-0.544-1.12-1.144-2.216-1.704-3.32c-1.472-2.88-2.992-5.736-4.576-8.544
		c-0.456-0.808-0.848-1.648-1.312-2.456c-0.112-0.184-0.264-0.328-0.392-0.504C392.248,46.496,317.48,0.008,232.008,0
		C232,0,232,0,231.992,0C146.52,0.008,71.752,46.496,31.504,115.488c-0.12,0.176-0.28,0.32-0.392,0.504
		c-0.464,0.808-0.856,1.648-1.312,2.456c-1.584,2.816-3.104,5.664-4.576,8.544c-0.56,1.112-1.152,2.208-1.704,3.328
		c-2.024,4.128-3.92,8.32-5.704,12.576c-0.192,0.464-0.368,0.936-0.552,1.408c-1.616,3.936-3.104,7.936-4.504,11.976
		c-0.272,0.784-0.536,1.568-0.8,2.352c-1.416,4.224-2.72,8.496-3.896,12.824c-0.056,0.216-0.128,0.424-0.184,0.64
		c-2.456,9.192-4.344,18.616-5.664,28.216c-0.144,1.04-0.272,2.08-0.4,3.12c-0.448,3.64-0.808,7.304-1.088,11
		c-0.088,1.184-0.192,2.368-0.264,3.56C0.184,222.632,0,227.296,0,232c0,4.6,0.184,9.16,0.448,13.696
		c0.072,1.176,0.16,2.344,0.248,3.512c0.288,3.88,0.664,7.744,1.144,11.576c0.088,0.72,0.152,1.44,0.256,2.16
		c0.616,4.552,1.368,9.064,2.24,13.536c0.168,0.88,0.376,1.752,0.552,2.624c0.768,3.672,1.616,7.312,2.552,10.928
		c0.288,1.104,0.56,2.2,0.864,3.296c1.152,4.176,2.392,8.32,3.768,12.408c0.408,1.216,0.872,2.408,1.296,3.608
		c1.016,2.864,2.08,5.712,3.208,8.528c0.696,1.752,1.408,3.496,2.152,5.232c1.096,2.544,2.248,5.056,3.432,7.56
		c1.36,2.888,2.784,5.736,4.264,8.56c0.96,1.832,1.92,3.664,2.928,5.472c0.608,1.096,1.144,2.224,1.776,3.312
		c0.152,0.264,0.368,0.472,0.552,0.712c34.672,59.32,94.984,102.296,166.68,112.728C205.464,472.568,217.848,480,232,480h112
		c22.056,0,40-17.944,40-40v-48h88c4.416,0,8-3.584,8-8V256C480,251.584,476.416,248,472,248z M464,286.864
		c-11.192-2.912-19.952-11.672-22.864-22.864h13.552H464V286.864z M424.72,376H376h-96V264h96h48.72
		c3.384,20.056,19.224,35.888,39.28,39.28v33.448C443.944,340.112,428.112,355.944,424.72,376z M29.936,308.048
		c-0.36-0.96-0.728-1.912-1.072-2.88c-1.92-5.304-3.672-10.688-5.184-16.16c-0.136-0.496-0.232-1.008-0.368-1.504
		c-1.304-4.88-2.4-9.848-3.36-14.848c-0.28-1.44-0.552-2.88-0.8-4.328c-0.928-5.416-1.704-10.888-2.216-16.424
		c-0.072-0.752-0.088-1.504-0.152-2.256c-0.256-3.184-0.304-6.424-0.424-9.648h103.896c1.184,34.424,9.8,66.848,21.968,96h-99.28
		C37.992,327.024,33.592,317.72,29.936,308.048z M16.848,213.488c0.072-0.816,0.112-1.648,0.184-2.464
		c0.8-8.152,2.048-16.248,3.76-24.24c0.048-0.24,0.112-0.472,0.168-0.712c0.8-3.664,1.696-7.296,2.68-10.912
		c0.176-0.64,0.368-1.28,0.544-1.92c0.904-3.2,1.88-6.368,2.936-9.52c0.272-0.808,0.544-1.616,0.816-2.416
		c1.04-2.992,2.152-5.952,3.32-8.896c0.336-0.84,0.656-1.688,1-2.52c1.272-3.088,2.632-6.144,4.048-9.176
		c0.28-0.6,0.528-1.208,0.816-1.8c1.648-3.456,3.408-6.856,5.248-10.224c0.128-0.24,0.264-0.456,0.392-0.688h99.352
		c-12.008,28.896-20.72,61.392-21.912,96h-104c0.016-0.44,0.016-0.888,0.032-1.328C16.368,219.6,16.584,216.544,16.848,213.488z
		 M232,19.504C244.104,32.44,273.584,66.328,296.688,112h-129.28C190.52,66.336,219.92,32.432,232,19.504z M304.224,128
		c4.528,10.232,8.696,20.888,12.184,32H232c-22.056,0-40,17.944-40,40v24h-55.648c1.304-34.544,10.704-67.192,23.48-96H304.224z
		 M136.216,240H192v96h-32.4C146.784,307.016,137.488,274.504,136.216,240z M192,352v42.096c-8.568-12.664-17.104-26.8-24.84-42.096
		H192z M232,176h95.08H344c13.232,0,24,10.768,24,24H208C208,186.768,218.768,176,232,176z M447.384,248H384v-48
		c0-22.056-17.944-40-40-40h-11c-3.264-11.08-7.08-21.768-11.336-32h99.576c0.12,0.216,0.256,0.432,0.376,0.648
		c1.944,3.56,3.784,7.16,5.52,10.816c0.384,0.808,0.736,1.64,1.112,2.448c1.416,3.08,2.768,6.176,4.032,9.312
		c0.368,0.904,0.72,1.808,1.072,2.72c1.32,3.408,2.568,6.84,3.712,10.312c0.16,0.488,0.336,0.968,0.496,1.456
		c2.664,8.256,4.824,16.68,6.48,25.2c0.12,0.6,0.216,1.208,0.328,1.816c0.648,3.504,1.2,7.024,1.68,10.56
		c0.136,1.032,0.272,2.064,0.392,3.104c0.384,3.232,0.68,6.472,0.92,9.72c0.08,1.08,0.184,2.144,0.248,3.232
		c0.24,4.208,0.392,8.424,0.392,12.656C448,237.208,447.792,242.568,447.384,248z M411.496,112h-96.968
		c-20.68-43.408-47.256-77.048-63.2-95.088C318.016,22.856,376.088,59.2,411.496,112z M212.624,16.912
		C196.592,35,169.88,68.648,149.232,112H52.504C87.904,59.216,145.952,22.872,212.624,16.912z M192.24,444.28
		C133.808,433.408,84.264,399.064,52.696,352h96.64c12.872,26.904,28.272,50.464,42.672,69.576V440
		C192,441.432,192.08,442.856,192.24,444.28z M344,464H232c-9.376,0-17.424-5.456-21.376-13.312c-0.016-0.04-0.024-0.08-0.04-0.12
		C208.872,447.104,208,443.552,208,440h160C368,453.232,357.232,464,344,464z M368,424H208v-5.08V344V232v-16h160v32h-88v-16h-16v24
		v128v24h16v-16h88V424z M441.136,376c2.912-11.192,11.672-19.952,22.864-22.864V376H441.136z"/>
	<path style="fill:#143446;" d="M352,288c-17.648,0-32,14.352-32,32s14.352,32,32,32s32-14.352,32-32S369.648,288,352,288z M352,336
		c-8.824,0-16-7.176-16-16s7.176-16,16-16s16,7.176,16,16S360.824,336,352,336z"/>
</g>
<g>
</g>
<g>
</g>
<g>
</g>
<g>
</g>
<g>
</g>
<g>
</g>
<g>
</g>
<g>
</g>
<g>
</g>
<g>
</g>
<g>
</g>
<g>
</g>
<g>
</g>
<g>
</g>
<g>
</g>
</svg>
